<svg xmlns="http://www.w3.org/2000/svg" xmlns:xlink="http://www.w3.org/1999/xlink" width="1024" zoomAndPan="magnify" viewBox="0 0 768 767.999994" height="1024" preserveAspectRatio="xMidYMid meet" version="1.0"><defs><clipPath id="6091e9901f"><path d="M 176.054688 154.542969 L 592 154.542969 L 592 613.542969 L 176.054688 613.542969 Z M 176.054688 154.542969 " clip-rule="nonzero"/></clipPath></defs><g clip-path="url(#6091e9901f)"><path fill="#ffffff" d="M 431.195312 587.953125 C 431.195312 602.035156 419.78125 613.449219 405.699219 613.449219 L 242.535156 613.449219 C 205.984375 613.449219 176.246094 583.714844 176.246094 547.164062 L 176.246094 220.828125 C 176.246094 184.277344 205.984375 154.542969 242.535156 154.542969 L 405.699219 154.542969 C 419.78125 154.542969 431.195312 165.957031 431.195312 180.039062 C 431.195312 194.117188 419.78125 205.53125 405.699219 205.53125 L 242.535156 205.53125 C 234.097656 205.53125 227.238281 212.394531 227.238281 220.828125 L 227.238281 547.164062 C 227.238281 555.597656 234.097656 562.460938 242.535156 562.460938 L 405.699219 562.460938 C 419.78125 562.460938 431.195312 573.875 431.195312 587.953125 Z M 591.726562 382.734375 C 591.714844 382.535156 591.699219 382.34375 591.683594 382.148438 C 591.667969 381.929688 591.65625 381.710938 591.632812 381.492188 C 591.609375 381.242188 591.578125 380.996094 591.542969 380.75 C 591.523438 380.585938 591.507812 380.425781 591.484375 380.265625 C 591.445312 379.996094 591.394531 379.726562 591.347656 379.457031 C 591.324219 379.320312 591.300781 379.183594 591.273438 379.046875 C 591.222656 378.773438 591.160156 378.503906 591.097656 378.234375 C 591.066406 378.097656 591.039062 377.964844 591.003906 377.832031 C 590.9375 377.570312 590.867188 377.3125 590.792969 377.054688 C 590.753906 376.910156 590.714844 376.765625 590.671875 376.621094 C 590.597656 376.382812 590.519531 376.144531 590.441406 375.90625 C 590.386719 375.746094 590.335938 375.582031 590.277344 375.421875 C 590.199219 375.207031 590.117188 375 590.039062 374.789062 C 589.964844 374.605469 589.898438 374.421875 589.820312 374.238281 C 589.746094 374.054688 589.664062 373.875 589.585938 373.691406 C 589.492188 373.488281 589.402344 373.285156 589.308594 373.082031 C 589.230469 372.925781 589.152344 372.769531 589.078125 372.617188 C 588.964844 372.394531 588.855469 372.171875 588.738281 371.953125 C 588.667969 371.820312 588.589844 371.6875 588.515625 371.554688 C 588.386719 371.324219 588.257812 371.09375 588.117188 370.863281 C 588.046875 370.742188 587.96875 370.621094 587.894531 370.503906 C 587.75 370.273438 587.601562 370.042969 587.449219 369.8125 C 587.371094 369.691406 587.285156 369.574219 587.203125 369.457031 C 587.050781 369.238281 586.898438 369.019531 586.738281 368.804688 C 586.636719 368.667969 586.53125 368.535156 586.425781 368.402344 C 586.277344 368.207031 586.128906 368.015625 585.976562 367.828125 C 585.828125 367.648438 585.679688 367.480469 585.527344 367.308594 C 585.40625 367.167969 585.289062 367.023438 585.164062 366.886719 C 584.878906 366.570312 584.585938 366.261719 584.285156 365.960938 L 481.542969 263.21875 C 471.585938 253.265625 455.445312 253.265625 445.488281 263.21875 C 435.53125 273.175781 435.53125 289.320312 445.488281 299.277344 L 504.714844 358.5 L 303.722656 358.5 C 289.640625 358.5 278.226562 369.914062 278.226562 383.996094 C 278.226562 398.078125 289.640625 409.492188 303.722656 409.492188 L 504.714844 409.492188 L 445.488281 468.714844 C 435.53125 478.671875 435.53125 494.816406 445.488281 504.769531 C 450.464844 509.75 456.992188 512.238281 463.515625 512.238281 C 470.039062 512.238281 476.566406 509.75 481.542969 504.769531 L 584.289062 402.023438 C 584.300781 402.011719 584.3125 402 584.324219 401.988281 C 584.609375 401.703125 584.886719 401.410156 585.160156 401.109375 C 585.296875 400.957031 585.429688 400.800781 585.5625 400.644531 C 585.699219 400.484375 585.839844 400.332031 585.96875 400.167969 C 586.132812 399.972656 586.285156 399.769531 586.441406 399.566406 C 586.539062 399.441406 586.636719 399.320312 586.734375 399.191406 C 586.898438 398.972656 587.054688 398.746094 587.210938 398.523438 C 587.289062 398.410156 587.371094 398.296875 587.449219 398.179688 C 587.605469 397.949219 587.75 397.714844 587.898438 397.476562 C 587.972656 397.363281 588.042969 397.246094 588.117188 397.132812 C 588.253906 396.898438 588.386719 396.664062 588.519531 396.429688 C 588.59375 396.300781 588.664062 396.171875 588.734375 396.042969 C 588.855469 395.820312 588.96875 395.59375 589.078125 395.371094 C 589.15625 395.21875 589.234375 395.066406 589.304688 394.914062 C 589.402344 394.707031 589.492188 394.5 589.585938 394.292969 C 589.664062 394.113281 589.746094 393.933594 589.820312 393.753906 C 589.898438 393.570312 589.96875 393.382812 590.039062 393.199219 C 590.121094 392.988281 590.199219 392.78125 590.277344 392.570312 C 590.335938 392.40625 590.386719 392.242188 590.441406 392.082031 C 590.523438 391.84375 590.597656 391.609375 590.671875 391.371094 C 590.714844 391.226562 590.753906 391.082031 590.796875 390.933594 C 590.867188 390.679688 590.941406 390.421875 591.003906 390.160156 C 591.039062 390.027344 591.066406 389.890625 591.097656 389.753906 C 591.160156 389.488281 591.222656 389.21875 591.277344 388.949219 C 591.304688 388.808594 591.324219 388.667969 591.351562 388.53125 C 591.398438 388.265625 591.445312 387.996094 591.488281 387.726562 C 591.511719 387.566406 591.527344 387.402344 591.546875 387.242188 C 591.578125 386.996094 591.613281 386.75 591.636719 386.5 C 591.660156 386.28125 591.671875 386.0625 591.6875 385.84375 C 591.699219 385.648438 591.71875 385.453125 591.726562 385.257812 C 591.75 384.835938 591.761719 384.417969 591.761719 383.996094 C 591.757812 383.574219 591.746094 383.15625 591.726562 382.734375 Z M 591.726562 382.734375 " fill-opacity="1" fill-rule="nonzero"/></g></svg>