<svg xmlns="http://www.w3.org/2000/svg" xmlns:xlink="http://www.w3.org/1999/xlink" width="1024" zoomAndPan="magnify" viewBox="0 0 768 767.999994" height="1024" preserveAspectRatio="xMidYMid meet" version="1.0"><defs><clipPath id="af115fb9de"><path d="M 183.523438 153.328125 L 583 153.328125 L 583 614.578125 L 183.523438 614.578125 Z M 183.523438 153.328125 " clip-rule="nonzero"/></clipPath></defs><g clip-path="url(#af115fb9de)"><path fill="#ffffff" d="M 514.40625 614.621094 L 252.277344 614.621094 C 251.15625 614.621094 250.035156 614.59375 248.917969 614.535156 C 247.796875 614.480469 246.679688 614.394531 245.566406 614.285156 C 244.449219 614.175781 243.335938 614.035156 242.230469 613.871094 C 241.121094 613.703125 240.015625 613.511719 238.917969 613.292969 C 237.816406 613.074219 236.726562 612.824219 235.636719 612.554688 C 234.550781 612.28125 233.472656 611.980469 232.398438 611.652344 C 231.328125 611.328125 230.261719 610.976562 229.207031 610.597656 C 228.152344 610.21875 227.109375 609.816406 226.074219 609.386719 C 225.039062 608.957031 224.011719 608.5 223 608.019531 C 221.988281 607.542969 220.988281 607.035156 220 606.507812 C 219.011719 605.980469 218.035156 605.425781 217.074219 604.851562 C 216.113281 604.273438 215.167969 603.671875 214.234375 603.050781 C 213.304688 602.429688 212.386719 601.78125 211.488281 601.113281 C 210.585938 600.445312 209.703125 599.757812 208.835938 599.046875 C 207.972656 598.335938 207.121094 597.601562 206.292969 596.851562 C 205.460938 596.097656 204.648438 595.324219 203.859375 594.53125 C 203.066406 593.738281 202.292969 592.925781 201.539062 592.097656 C 200.785156 591.265625 200.054688 590.417969 199.34375 589.550781 C 198.632812 588.6875 197.941406 587.800781 197.273438 586.902344 C 196.605469 586.003906 195.960938 585.085938 195.339844 584.15625 C 194.714844 583.222656 194.117188 582.277344 193.539062 581.316406 C 192.960938 580.355469 192.410156 579.378906 191.882812 578.390625 C 191.351562 577.402344 190.847656 576.402344 190.367188 575.390625 C 189.886719 574.375 189.433594 573.351562 189.003906 572.316406 C 188.574219 571.28125 188.171875 570.238281 187.792969 569.179688 C 187.414062 568.125 187.0625 567.0625 186.734375 565.988281 C 186.410156 564.917969 186.109375 563.839844 185.835938 562.75 C 185.5625 561.664062 185.316406 560.570312 185.097656 559.472656 C 184.878906 558.371094 184.683594 557.269531 184.519531 556.160156 C 184.355469 555.050781 184.214844 553.941406 184.105469 552.824219 C 183.992188 551.710938 183.910156 550.59375 183.851562 549.472656 C 183.796875 548.351562 183.769531 547.234375 183.765625 546.113281 L 183.765625 362.359375 C 183.757812 358.03125 184.164062 353.742188 184.984375 349.496094 C 185.808594 345.246094 187.03125 341.113281 188.652344 337.101562 C 190.277344 333.089844 192.269531 329.269531 194.632812 325.644531 C 196.996094 322.019531 199.683594 318.652344 202.699219 315.546875 L 342.925781 170.53125 C 344.230469 169.175781 345.601562 167.886719 347.035156 166.667969 C 348.46875 165.449219 349.960938 164.304688 351.511719 163.238281 C 353.058594 162.167969 354.660156 161.179688 356.308594 160.273438 C 357.957031 159.367188 359.648438 158.542969 361.378906 157.808594 C 363.109375 157.070312 364.875 156.421875 366.671875 155.863281 C 368.46875 155.300781 370.289062 154.835938 372.132812 154.457031 C 373.976562 154.082031 375.835938 153.800781 377.707031 153.609375 C 379.582031 153.421875 381.457031 153.328125 383.339844 153.328125 C 385.222656 153.328125 387.101562 153.421875 388.972656 153.609375 C 390.847656 153.800781 392.703125 154.082031 394.546875 154.457031 C 396.390625 154.835938 398.214844 155.300781 400.011719 155.863281 C 401.808594 156.421875 403.570312 157.070312 405.304688 157.808594 C 407.035156 158.542969 408.726562 159.367188 410.375 160.273438 C 412.023438 161.179688 413.621094 162.167969 415.171875 163.238281 C 416.722656 164.304688 418.214844 165.449219 419.648438 166.667969 C 421.082031 167.886719 422.453125 169.175781 423.757812 170.53125 L 577.054688 329.058594 C 577.53125 329.550781 577.984375 330.0625 578.414062 330.597656 C 578.839844 331.132812 579.242188 331.683594 579.613281 332.261719 C 579.988281 332.835938 580.332031 333.425781 580.644531 334.035156 C 580.960938 334.640625 581.246094 335.265625 581.5 335.898438 C 581.753906 336.535156 581.976562 337.183594 582.164062 337.839844 C 582.355469 338.5 582.511719 339.164062 582.636719 339.839844 C 582.761719 340.511719 582.851562 341.191406 582.910156 341.871094 C 582.964844 342.554688 582.988281 343.238281 582.980469 343.925781 C 582.96875 344.609375 582.925781 345.292969 582.847656 345.972656 C 582.773438 346.652344 582.660156 347.328125 582.519531 347.996094 C 582.375 348.667969 582.199219 349.328125 581.988281 349.980469 C 581.78125 350.632812 581.539062 351.273438 581.269531 351.902344 C 580.996094 352.53125 580.695312 353.144531 580.363281 353.742188 C 580.027344 354.339844 579.667969 354.921875 579.277344 355.484375 C 578.886719 356.050781 578.472656 356.59375 578.027344 357.113281 C 577.585938 357.636719 577.117188 358.136719 576.625 358.613281 C 576.132812 359.085938 575.617188 359.539062 575.082031 359.964844 C 574.546875 360.390625 573.988281 360.789062 573.414062 361.15625 C 572.835938 361.527344 572.242188 361.871094 571.632812 362.183594 C 571.023438 362.496094 570.402344 362.777344 569.765625 363.027344 C 569.125 363.277344 568.476562 363.496094 567.820312 363.683594 C 567.160156 363.871094 566.492188 364.023438 565.820312 364.144531 C 565.144531 364.265625 564.46875 364.355469 563.785156 364.40625 C 563.101562 364.460938 562.417969 364.484375 561.734375 364.46875 C 561.046875 364.457031 560.367188 364.410156 559.6875 364.328125 C 559.003906 364.25 558.332031 364.136719 557.660156 363.988281 C 556.992188 363.84375 556.332031 363.664062 555.679688 363.449219 C 555.03125 363.238281 554.390625 362.996094 553.761719 362.722656 C 553.136719 362.445312 552.523438 362.140625 551.925781 361.804688 C 551.328125 361.46875 550.75 361.105469 550.1875 360.714844 C 549.628906 360.324219 549.085938 359.902344 548.566406 359.457031 C 548.046875 359.011719 547.550781 358.542969 547.074219 358.046875 L 393.765625 199.578125 C 393.433594 199.226562 393.082031 198.886719 392.714844 198.566406 C 392.347656 198.25 391.964844 197.949219 391.566406 197.667969 C 391.167969 197.386719 390.753906 197.128906 390.328125 196.890625 C 389.90625 196.652344 389.46875 196.4375 389.019531 196.242188 C 388.574219 196.050781 388.117188 195.878906 387.652344 195.734375 C 387.1875 195.585938 386.71875 195.460938 386.242188 195.363281 C 385.765625 195.265625 385.285156 195.191406 384.796875 195.140625 C 384.3125 195.089844 383.828125 195.066406 383.339844 195.066406 C 382.855469 195.066406 382.367188 195.089844 381.882812 195.140625 C 381.398438 195.191406 380.917969 195.265625 380.441406 195.363281 C 379.964844 195.460938 379.492188 195.585938 379.027344 195.734375 C 378.5625 195.878906 378.109375 196.050781 377.660156 196.242188 C 377.214844 196.4375 376.777344 196.652344 376.351562 196.890625 C 375.925781 197.128906 375.515625 197.386719 375.117188 197.667969 C 374.71875 197.949219 374.335938 198.25 373.96875 198.566406 C 373.597656 198.886719 373.25 199.226562 372.914062 199.578125 L 232.675781 344.535156 C 231.53125 345.722656 230.511719 347.011719 229.617188 348.394531 C 228.71875 349.78125 227.964844 351.242188 227.351562 352.773438 C 226.742188 354.304688 226.28125 355.882812 225.972656 357.503906 C 225.667969 359.125 225.519531 360.757812 225.527344 362.410156 L 225.527344 546.113281 C 225.53125 546.988281 225.574219 547.863281 225.660156 548.738281 C 225.746094 549.613281 225.878906 550.480469 226.050781 551.339844 C 226.222656 552.199219 226.433594 553.050781 226.691406 553.890625 C 226.945312 554.730469 227.242188 555.554688 227.578125 556.367188 C 227.914062 557.175781 228.289062 557.96875 228.703125 558.742188 C 229.117188 559.515625 229.570312 560.269531 230.058594 560.996094 C 230.546875 561.726562 231.066406 562.429688 231.625 563.109375 C 232.179688 563.789062 232.769531 564.4375 233.390625 565.058594 C 234.011719 565.679688 234.660156 566.265625 235.339844 566.824219 C 236.019531 567.382812 236.722656 567.902344 237.453125 568.390625 C 238.179688 568.878906 238.933594 569.332031 239.707031 569.746094 C 240.480469 570.160156 241.273438 570.535156 242.082031 570.871094 C 242.894531 571.207031 243.71875 571.503906 244.558594 571.757812 C 245.398438 572.011719 246.25 572.226562 247.109375 572.398438 C 247.96875 572.570312 248.835938 572.699219 249.710938 572.789062 C 250.582031 572.875 251.460938 572.917969 252.335938 572.921875 L 514.464844 572.921875 C 515.148438 572.921875 515.828125 572.953125 516.507812 573.019531 C 517.1875 573.085938 517.863281 573.1875 518.53125 573.320312 C 519.203125 573.453125 519.863281 573.621094 520.515625 573.816406 C 521.171875 574.015625 521.8125 574.246094 522.445312 574.507812 C 523.074219 574.769531 523.691406 575.058594 524.292969 575.382812 C 524.894531 575.703125 525.480469 576.054688 526.046875 576.433594 C 526.617188 576.8125 527.164062 577.21875 527.691406 577.652344 C 528.21875 578.085938 528.726562 578.542969 529.207031 579.027344 C 529.691406 579.511719 530.148438 580.015625 530.582031 580.542969 C 531.015625 581.070312 531.421875 581.621094 531.800781 582.1875 C 532.179688 582.753906 532.53125 583.339844 532.851562 583.941406 C 533.175781 584.542969 533.464844 585.160156 533.726562 585.792969 C 533.988281 586.421875 534.21875 587.066406 534.417969 587.71875 C 534.617188 588.371094 534.78125 589.035156 534.914062 589.703125 C 535.046875 590.375 535.148438 591.046875 535.214844 591.726562 C 535.28125 592.40625 535.316406 593.089844 535.316406 593.769531 C 535.316406 594.453125 535.28125 595.136719 535.214844 595.816406 C 535.148438 596.496094 535.046875 597.167969 534.914062 597.839844 C 534.78125 598.507812 534.617188 599.171875 534.417969 599.824219 C 534.21875 600.476562 533.988281 601.121094 533.726562 601.75 C 533.464844 602.382812 533.175781 603 532.851562 603.601562 C 532.53125 604.203125 532.179688 604.789062 531.800781 605.355469 C 531.421875 605.921875 531.015625 606.472656 530.582031 607 C 530.148438 607.527344 529.691406 608.03125 529.207031 608.515625 C 528.726562 609 528.21875 609.457031 527.691406 609.890625 C 527.164062 610.324219 526.617188 610.730469 526.046875 611.109375 C 525.480469 611.488281 524.894531 611.839844 524.292969 612.160156 C 523.691406 612.480469 523.074219 612.773438 522.441406 613.035156 C 521.8125 613.296875 521.171875 613.527344 520.515625 613.722656 C 519.863281 613.921875 519.203125 614.089844 518.53125 614.222656 C 517.863281 614.355469 517.1875 614.453125 516.507812 614.523438 C 515.828125 614.589844 515.148438 614.621094 514.464844 614.621094 Z M 514.40625 614.621094 " fill-opacity="1" fill-rule="nonzero"/></g></svg>