<svg xmlns="http://www.w3.org/2000/svg" xmlns:xlink="http://www.w3.org/1999/xlink" width="1024" zoomAndPan="magnify" viewBox="0 0 768 767.999994" height="1024" preserveAspectRatio="xMidYMid meet" version="1.0"><defs><clipPath id="5aac1e2eec"><path d="M 126.832031 138 L 640 138 L 640 630 L 126.832031 630 Z M 126.832031 138 " clip-rule="nonzero"/></clipPath></defs><g clip-path="url(#5aac1e2eec)"><path fill="#ffffff" d="M 639.03125 432.035156 C 639.03125 419.210938 633.933594 407.257812 625.160156 398.421875 C 635.128906 387.515625 640.183594 372.875 638.796875 357.679688 C 636.324219 330.554688 611.863281 309.300781 583.160156 309.300781 L 451.355469 309.300781 C 457.839844 289.472656 468.300781 253.128906 468.300781 223.933594 C 468.300781 177.640625 428.964844 138.566406 404.273438 138.566406 C 382.101562 138.566406 366.242188 151.027344 365.582031 151.5625 C 363.042969 153.609375 361.589844 156.664062 361.589844 159.90625 L 361.589844 232.253906 L 300.125 365.449219 L 297.566406 366.730469 L 297.566406 362.652344 C 297.566406 356.761719 292.785156 351.984375 286.894531 351.984375 L 180.1875 351.984375 C 150.777344 351.984375 126.832031 375.929688 126.832031 405.335938 L 126.832031 576.070312 C 126.832031 605.480469 150.777344 629.425781 180.1875 629.425781 L 244.210938 629.425781 C 267.300781 629.425781 287 614.699219 294.449219 594.167969 C 312.207031 603.304688 336.109375 608.105469 350.941406 608.105469 L 546.835938 608.105469 C 570.078125 608.105469 590.394531 592.417969 595.175781 570.820312 C 597.628906 559.703125 596.199219 548.496094 591.335938 538.765625 C 607.085938 530.828125 617.691406 514.585938 617.691406 496.0625 C 617.691406 488.503906 615.960938 481.269531 612.675781 474.71875 C 628.425781 466.78125 639.03125 450.539062 639.03125 432.035156 Z M 244.210938 608.082031 L 180.1875 608.082031 C 162.515625 608.082031 148.171875 593.71875 148.171875 576.070312 L 148.171875 405.335938 C 148.171875 387.6875 162.535156 373.324219 180.1875 373.324219 L 180.1875 373.429688 L 276.179688 373.429688 L 276.179688 384.101562 C 276.179688 384.167969 276.222656 384.207031 276.222656 384.273438 L 276.222656 576.070312 C 276.222656 593.71875 261.839844 608.082031 244.210938 608.082031 Z M 594 458.394531 C 589.882812 458.863281 586.402344 461.65625 585.101562 465.605469 C 583.800781 469.53125 584.867188 473.886719 587.898438 476.726562 C 593.339844 481.867188 596.328125 488.742188 596.328125 496.082031 C 596.328125 509.527344 586.167969 520.859375 572.679688 522.398438 C 568.5625 522.867188 565.082031 525.660156 563.78125 529.609375 C 562.480469 533.535156 563.546875 537.890625 566.578125 540.730469 C 573.621094 547.367188 576.4375 556.671875 574.324219 566.210938 C 571.699219 578.097656 560.132812 586.742188 546.816406 586.742188 L 350.917969 586.742188 C 335.0625 586.742188 309.539062 579.890625 297.566406 570.992188 L 297.566406 390.652344 L 312.953125 382.972656 C 315.109375 381.882812 316.835938 380.089844 317.859375 377.890625 L 381.886719 239.171875 C 382.527344 237.78125 382.867188 236.246094 382.867188 234.710938 L 382.867188 165.820312 C 387.308594 163.363281 395.011719 160.015625 404.210938 160.015625 C 415.90625 160.015625 446.894531 189.101562 446.894531 224.039062 C 446.894531 261.578125 426.46875 315.746094 426.253906 316.277344 C 425.019531 319.542969 425.445312 323.234375 427.449219 326.117188 C 429.457031 328.996094 432.722656 330.726562 436.242188 330.726562 L 583.097656 330.726562 C 600.894531 330.726562 616.003906 343.445312 617.5 359.707031 C 618.628906 371.875 612.824219 383.441406 602.324219 389.90625 C 599.039062 391.914062 597.117188 395.5625 597.265625 399.402344 C 597.394531 403.246094 599.613281 406.703125 603.050781 408.472656 C 612.058594 413.085938 617.648438 422.132812 617.648438 432.078125 C 617.628906 445.523438 607.46875 456.855469 594 458.394531 Z M 594 458.394531 " fill-opacity="1" fill-rule="nonzero"/></g></svg>