<svg xmlns="http://www.w3.org/2000/svg" xmlns:xlink="http://www.w3.org/1999/xlink" width="1024" zoomAndPan="magnify" viewBox="0 0 768 767.999994" height="1024" preserveAspectRatio="xMidYMid meet" version="1.0"><defs><clipPath id="06fd4887f0"><path d="M 114 114 L 654 114 L 654 654 L 114 654 Z M 114 114 " clip-rule="nonzero"/></clipPath><clipPath id="7646aa95ef"><path d="M 384 99.285156 L 668.785156 384.074219 L 384 668.859375 L 99.210938 384.074219 Z M 384 99.285156 " clip-rule="nonzero"/></clipPath><clipPath id="0c982615ac"><path d="M 384 99.285156 L 668.785156 384.074219 L 384 668.859375 L 99.210938 384.074219 Z M 384 99.285156 " clip-rule="nonzero"/></clipPath></defs><g clip-path="url(#06fd4887f0)"><g clip-path="url(#7646aa95ef)"><g clip-path="url(#0c982615ac)"><path fill="#ffffff" d="M 618.007812 419.492188 C 627.871094 419.628906 636.257812 416.183594 643.164062 409.15625 C 650.195312 402.246094 653.703125 393.796875 653.695312 383.804688 C 653.703125 374.070312 650.257812 365.6875 643.359375 358.648438 C 636.320312 351.75 627.871094 348.238281 618.007812 348.117188 L 419.683594 348.3125 L 419.683594 149.792969 C 419.695312 140.0625 416.25 131.675781 409.351562 124.636719 C 402.3125 117.738281 393.859375 114.226562 384 114.105469 C 374.136719 114.226562 365.6875 117.738281 358.648438 124.636719 C 351.75 131.675781 348.304688 140.0625 348.3125 149.792969 L 348.3125 348.3125 L 149.988281 348.117188 C 140.125 348.238281 131.675781 351.75 124.636719 358.648438 C 117.738281 365.6875 114.292969 374.070312 114.300781 383.804688 C 114.292969 393.796875 117.804688 402.246094 124.832031 409.15625 C 131.742188 416.183594 140.125 419.628906 149.988281 419.492188 L 348.3125 419.683594 L 348.3125 617.8125 C 348.304688 627.804688 351.8125 636.257812 358.84375 643.164062 C 365.75 650.195312 374.136719 653.640625 384 653.5 C 393.859375 653.640625 402.246094 650.195312 409.15625 643.164062 C 416.183594 636.257812 419.695312 627.804688 419.683594 617.8125 L 419.683594 419.683594 Z M 618.007812 419.492188 " fill-opacity="1" fill-rule="nonzero"/></g></g></g></svg>