<svg xmlns="http://www.w3.org/2000/svg" xmlns:xlink="http://www.w3.org/1999/xlink" width="1024" zoomAndPan="magnify" viewBox="0 0 768 767.999994" height="1024" preserveAspectRatio="xMidYMid meet" version="1.0"><defs><clipPath id="bcf8fe41bd"><path d="M 160 76.800781 L 608 76.800781 L 608 691.050781 L 160 691.050781 Z M 160 76.800781 " clip-rule="nonzero"/></clipPath></defs><rect x="-76.8" width="921.6" fill="#ffffff" y="-76.799999" height="921.599993" fill-opacity="1"/><rect x="-76.8" width="921.6" fill="#222222" y="-76.799999" height="921.599993" fill-opacity="1"/><path fill="#eb5528" d="M 438.109375 312.535156 L 329.875 312.535156 C 304.15625 312.535156 283.234375 291.609375 283.234375 265.886719 C 283.234375 240.171875 304.15625 219.246094 329.875 219.246094 L 438.109375 219.246094 C 463.828125 219.246094 484.75 240.171875 484.75 265.886719 C 484.75 291.609375 463.828125 312.535156 438.109375 312.535156 Z M 438.109375 203.828125 L 329.875 203.828125 C 295.660156 203.828125 267.820312 231.667969 267.820312 265.886719 C 267.820312 300.105469 295.660156 327.953125 329.875 327.953125 L 438.109375 327.953125 C 472.328125 327.953125 500.167969 300.105469 500.167969 265.886719 C 500.167969 231.667969 472.328125 203.828125 438.109375 203.828125 " fill-opacity="1" fill-rule="nonzero"/><path fill="#eb5528" d="M 335.726562 274.8125 C 330.800781 274.8125 326.796875 270.808594 326.796875 265.886719 C 326.796875 260.96875 330.800781 256.96875 335.726562 256.96875 C 340.640625 256.96875 344.644531 260.96875 344.644531 265.886719 C 344.644531 270.808594 340.640625 274.8125 335.726562 274.8125 Z M 335.726562 241.550781 C 322.304688 241.550781 311.378906 252.472656 311.378906 265.886719 C 311.378906 279.308594 322.304688 290.222656 335.726562 290.222656 C 349.144531 290.222656 360.0625 279.308594 360.0625 265.886719 C 360.0625 252.472656 349.144531 241.550781 335.726562 241.550781 " fill-opacity="1" fill-rule="nonzero"/><path fill="#eb5528" d="M 432.261719 274.8125 C 427.347656 274.8125 423.34375 270.808594 423.34375 265.886719 C 423.34375 260.96875 427.347656 256.96875 432.261719 256.96875 C 437.183594 256.96875 441.183594 260.96875 441.183594 265.886719 C 441.183594 270.808594 437.183594 274.8125 432.261719 274.8125 Z M 432.261719 241.550781 C 418.839844 241.550781 407.925781 252.472656 407.925781 265.886719 C 407.925781 279.308594 418.839844 290.222656 432.261719 290.222656 C 445.683594 290.222656 456.601562 279.308594 456.601562 265.886719 C 456.601562 252.472656 445.683594 241.550781 432.261719 241.550781 " fill-opacity="1" fill-rule="nonzero"/><g clip-path="url(#bcf8fe41bd)"><path fill="#eb5528" d="M 573.941406 569.316406 C 569.914062 572.425781 567.035156 572.597656 566.351562 572.195312 L 565.195312 571.652344 C 559.882812 569.671875 555.8125 558.089844 550.671875 543.429688 C 544.949219 527.148438 537.175781 504.992188 522.359375 480.347656 C 521.972656 448.949219 513.050781 418.839844 496.867188 393.558594 C 531.023438 404.714844 574.613281 438.910156 586.621094 484.914062 C 599.972656 533.492188 584.933594 560.824219 573.941406 569.316406 Z M 506.964844 482.699219 C 506.964844 499.117188 504.480469 515.058594 499.582031 530.085938 L 499.570312 530.113281 C 488.742188 563.78125 466.144531 592.035156 437.582031 607.625 L 437.375 607.738281 C 420.699219 616.882812 402.746094 621.535156 383.992188 621.535156 C 365.234375 621.535156 347.285156 616.882812 330.613281 607.738281 L 330.402344 607.625 C 301.84375 592.035156 279.246094 563.78125 268.417969 530.113281 L 268.40625 530.085938 C 263.507812 515.058594 261.023438 499.117188 261.023438 482.699219 L 261.023438 482.527344 C 261.023438 446.816406 273.109375 412.90625 295.050781 387.039062 L 295.132812 386.949219 C 301.027344 379.914062 307.769531 373.609375 315.0625 367.996094 L 452.925781 367.996094 C 460.210938 373.609375 466.960938 379.914062 472.855469 386.949219 L 472.9375 387.039062 C 494.871094 412.90625 506.964844 446.816406 506.964844 482.527344 Z M 499.203125 650.664062 C 499.203125 664.511719 487.9375 675.777344 474.09375 675.777344 C 460.253906 675.777344 448.984375 664.511719 448.984375 650.664062 L 448.984375 618.871094 C 469.210938 606.875 486.519531 589.222656 499.203125 568.058594 Z M 319.003906 650.664062 C 319.003906 664.511719 307.734375 675.777344 293.894531 675.777344 C 280.050781 675.777344 268.78125 664.511719 268.78125 650.664062 L 268.78125 568.058594 C 281.46875 589.222656 298.777344 606.875 319.003906 618.871094 Z M 245.621094 480.347656 C 230.8125 504.992188 223.039062 527.148438 217.316406 543.429688 C 212.175781 558.089844 208.105469 569.671875 202.785156 571.652344 L 201.628906 572.195312 C 200.957031 572.597656 198.0625 572.425781 194.042969 569.316406 C 183.054688 560.824219 168.015625 533.492188 181.390625 484.8125 C 193.378906 438.898438 236.960938 404.710938 271.117188 393.558594 C 254.933594 418.839844 246.015625 448.941406 245.621094 480.347656 Z M 248.761719 352.585938 C 231.097656 352.585938 216.726562 338.707031 216.726562 321.230469 C 216.726562 286.289062 227.410156 252.855469 247.632812 224.519531 C 257.710938 210.21875 269.855469 197.714844 283.761719 187.347656 C 312.820312 165.507812 347.480469 153.96875 383.992188 153.96875 C 420.507812 153.96875 455.164062 165.507812 484.25 187.367188 C 498.125 197.714844 510.273438 210.21875 520.375 224.554688 C 540.578125 252.855469 551.257812 286.289062 551.257812 321.230469 L 551.257812 321.652344 C 551.257812 338.707031 536.890625 352.585938 519.222656 352.585938 Z M 249.039062 103.402344 C 249.039062 97.238281 254.058594 92.21875 260.234375 92.21875 C 266.40625 92.21875 271.425781 97.238281 271.425781 103.402344 L 271.425781 177.515625 C 263.371094 183.808594 255.90625 190.785156 249.039062 198.359375 Z M 496.5625 103.402344 C 496.5625 97.238281 501.582031 92.21875 507.753906 92.21875 C 513.921875 92.21875 518.945312 97.238281 518.945312 103.402344 L 518.945312 198.359375 C 512.070312 190.773438 504.605469 183.800781 496.5625 177.523438 Z M 601.511719 480.925781 C 585.648438 420.171875 522.765625 379.097656 482.484375 374.742188 C 480.449219 372.414062 478.316406 370.1875 476.128906 367.996094 L 519.222656 367.996094 C 545.386719 367.996094 566.667969 347.207031 566.667969 321.652344 L 566.667969 321.230469 C 566.667969 283.921875 555.453125 248.222656 534.359375 217.777344 L 534.359375 103.402344 C 534.359375 88.734375 522.421875 76.800781 507.753906 76.800781 C 493.082031 76.800781 481.148438 88.734375 481.148438 103.402344 L 481.148438 166.519531 C 452.121094 148.179688 418.832031 138.550781 383.992188 138.550781 C 349.152344 138.550781 315.855469 148.183594 286.839844 166.515625 L 286.839844 103.402344 C 286.839844 88.734375 274.902344 76.800781 260.234375 76.800781 C 245.5625 76.800781 233.625 88.734375 233.625 103.402344 L 233.625 217.789062 C 212.519531 248.257812 201.3125 283.949219 201.3125 321.652344 C 201.3125 347.207031 222.601562 367.996094 248.761719 367.996094 L 291.859375 367.996094 C 289.671875 370.1875 287.535156 372.414062 285.5 374.742188 C 245.222656 379.097656 182.339844 420.167969 166.503906 480.824219 C 152 533.609375 167.195312 568.054688 184.621094 581.515625 C 189.972656 585.648438 195.617188 587.777344 200.808594 587.777344 C 203.628906 587.777344 206.308594 587.148438 208.742188 585.875 C 220.417969 581.144531 225.234375 567.417969 231.863281 548.53125 C 235.855469 537.164062 240.5625 523.890625 247.632812 509.152344 C 248.917969 517.46875 250.863281 525.597656 253.367188 533.527344 L 253.367188 650.664062 C 253.367188 673.011719 271.546875 691.191406 293.894531 691.191406 C 316.238281 691.191406 334.414062 673.011719 334.414062 650.664062 L 334.414062 626.675781 C 350.144531 633.457031 366.761719 636.945312 383.992188 636.945312 C 401.226562 636.945312 417.839844 633.457031 433.570312 626.675781 L 433.570312 650.664062 C 433.570312 673.011719 451.75 691.191406 474.09375 691.191406 C 496.441406 691.191406 514.617188 673.011719 514.617188 650.664062 L 514.617188 533.527344 C 517.125 525.597656 519.070312 517.46875 520.355469 509.152344 C 527.425781 523.890625 532.132812 537.164062 536.121094 548.53125 C 542.75 567.417969 547.570312 581.144531 559.242188 585.875 C 561.671875 587.152344 564.351562 587.777344 567.171875 587.777344 C 572.371094 587.777344 578.015625 585.648438 583.363281 581.515625 C 600.792969 568.054688 615.988281 533.609375 601.511719 480.925781 " fill-opacity="1" fill-rule="nonzero"/></g><path fill="#eb5528" d="M 421.429688 505.679688 L 346.554688 505.679688 C 326.835938 505.679688 310.796875 489.636719 310.796875 469.917969 C 310.796875 450.199219 326.835938 434.15625 346.554688 434.15625 L 421.429688 434.15625 C 441.152344 434.15625 457.1875 450.199219 457.1875 469.917969 C 457.1875 489.636719 441.152344 505.679688 421.429688 505.679688 Z M 421.429688 418.742188 L 346.554688 418.742188 C 318.335938 418.742188 295.382812 441.699219 295.382812 469.917969 C 295.382812 498.136719 318.335938 521.089844 346.554688 521.089844 L 421.429688 521.089844 C 449.648438 521.089844 472.605469 498.136719 472.605469 469.917969 C 472.605469 441.699219 449.648438 418.742188 421.429688 418.742188 " fill-opacity="1" fill-rule="nonzero"/><path fill="#eb5528" d="M 335.726562 477.628906 L 402.015625 477.628906 L 402.015625 462.210938 L 335.726562 462.210938 L 335.726562 477.628906 " fill-opacity="1" fill-rule="nonzero"/><path fill="#eb5528" d="M 415.636719 477.628906 L 436.953125 477.628906 L 436.953125 462.210938 L 415.636719 462.210938 L 415.636719 477.628906 " fill-opacity="1" fill-rule="nonzero"/></svg>