<svg xmlns="http://www.w3.org/2000/svg" xmlns:xlink="http://www.w3.org/1999/xlink" width="1024" zoomAndPan="magnify" viewBox="0 0 768 767.999994" height="1024" preserveAspectRatio="xMidYMid meet" version="1.0"><defs><clipPath id="9e42536471"><path d="M 259 128.023438 L 509 128.023438 L 509 394 L 259 394 Z M 259 128.023438 " clip-rule="nonzero"/></clipPath></defs><g clip-path="url(#9e42536471)"><path fill="#ffffff" d="M 383.996094 393.574219 C 452.527344 393.574219 508.273438 320.839844 508.273438 252.3125 C 508.273438 183.785156 452.527344 128.023438 383.996094 128.023438 C 315.464844 128.023438 259.714844 183.785156 259.714844 252.3125 C 259.722656 320.832031 315.46875 393.574219 383.996094 393.574219 Z M 383.996094 393.574219 " fill-opacity="1" fill-rule="nonzero"/></g><path fill="#ffffff" d="M 477.296875 394.847656 C 453.1875 413.214844 423.113281 424.144531 390.539062 424.144531 L 377.453125 424.144531 C 344.871094 424.144531 314.792969 413.210938 290.691406 394.847656 C 211.976562 407.574219 151.867188 475.796875 151.867188 558.097656 C 151.867188 603.308594 255.792969 639.96875 383.996094 639.96875 C 512.191406 639.96875 616.125 603.308594 616.125 558.097656 C 616.125 475.796875 556.011719 407.574219 477.296875 394.847656 Z M 477.296875 394.847656 " fill-opacity="1" fill-rule="nonzero"/></svg>