<svg xmlns="http://www.w3.org/2000/svg" xmlns:xlink="http://www.w3.org/1999/xlink" width="1024" zoomAndPan="magnify" viewBox="0 0 768 767.999994" height="1024" preserveAspectRatio="xMidYMid meet" version="1.0"><defs><clipPath id="6750b1a022"><path d="M 163 133.789062 L 605 133.789062 L 605 634.039062 L 163 634.039062 Z M 163 133.789062 " clip-rule="nonzero"/></clipPath></defs><g clip-path="url(#6750b1a022)"><path fill="#ffffff" d="M 369.84375 220.382812 C 397.320312 237.867188 416.46875 267.011719 419.800781 300.316406 C 430.625 305.3125 443.113281 308.640625 456.4375 308.640625 C 504.730469 308.640625 543.863281 269.507812 543.863281 221.214844 C 543.863281 172.921875 504.730469 133.789062 456.4375 133.789062 C 408.976562 134.621094 369.839844 172.921875 369.839844 220.382812 Z M 312.390625 398.566406 C 360.683594 398.566406 399.816406 359.433594 399.816406 311.140625 C 399.816406 262.847656 360.683594 223.714844 312.390625 223.714844 C 264.097656 223.714844 224.964844 262.847656 224.964844 311.140625 C 224.964844 359.433594 264.097656 398.566406 312.390625 398.566406 Z M 349.027344 404.394531 L 274.921875 404.394531 C 213.304688 404.394531 163.347656 454.351562 163.347656 515.96875 L 163.347656 608.390625 L 169.175781 610.054688 C 227.460938 628.375 279.085938 634.203125 320.714844 634.203125 C 402.316406 634.203125 449.773438 610.886719 453.105469 609.222656 L 458.933594 605.894531 L 459.765625 605.894531 L 459.765625 515.96875 C 460.597656 454.351562 410.640625 404.394531 349.027344 404.394531 Z M 493.070312 314.46875 L 419.800781 314.46875 C 418.96875 343.613281 406.476562 370.257812 386.496094 389.40625 C 441.449219 406.058594 481.414062 456.019531 481.414062 515.96875 L 481.414062 543.445312 C 553.855469 540.949219 595.484375 520.132812 597.984375 519.296875 L 603.8125 515.96875 L 604.644531 515.96875 L 604.644531 426.042969 C 604.644531 364.429688 554.6875 314.46875 493.070312 314.46875 Z M 493.070312 314.46875 " fill-opacity="1" fill-rule="nonzero"/></g></svg>