<svg xmlns="http://www.w3.org/2000/svg" xmlns:xlink="http://www.w3.org/1999/xlink" width="1024" zoomAndPan="magnify" viewBox="0 0 768 767.999994" height="1024" preserveAspectRatio="xMidYMid meet" version="1.0"><path fill="#ffffff" d="M 520.074219 481.84375 C 577.695312 420.378906 549.5 344.238281 520.074219 319.882812 C 516.847656 398.019531 433.183594 436.050781 397.144531 494.671875 C 384.546875 515.1875 375.328125 536.925781 379.859375 571.5 C 382.703125 593.246094 413.972656 667.078125 500.867188 654.09375 C 477.511719 633.273438 461.996094 614.222656 465.832031 579.644531 C 471.597656 535.46875 493.183594 512.574219 520.074219 481.84375 Z M 477.203125 336.554688 C 429.183594 411.464844 326.078125 458.175781 336.988281 564.433594 C 340.679688 600.929688 370.253906 654.09375 406.75 661.777344 C 287.664062 650.867188 190.320312 527.324219 276.136719 387.109375 C 310.097656 331.636719 385.621094 296.835938 412.511719 239.210938 C 437.480469 189.273438 416.355469 123.96875 360.652344 108.601562 C 414.433594 100.917969 482.507812 143.789062 497.640625 196.957031 C 511.773438 246.277344 504.09375 296.21875 477.203125 336.554688 " fill-opacity="1" fill-rule="nonzero"/></svg>