<svg xmlns="http://www.w3.org/2000/svg" xmlns:xlink="http://www.w3.org/1999/xlink" width="1024" zoomAndPan="magnify" viewBox="0 0 768 767.999994" height="1024" preserveAspectRatio="xMidYMid meet" version="1.0"><defs><clipPath id="a716da275f"><path d="M 117.523438 117.523438 L 648 117.523438 L 648 648 L 117.523438 648 Z M 117.523438 117.523438 " clip-rule="nonzero"/></clipPath></defs><g clip-path="url(#a716da275f)"><path fill="#ffffff" d="M 460.074219 507.238281 L 590.609375 637.726562 C 603.53125 650.648438 624.519531 650.644531 637.445312 637.71875 C 650.363281 624.789062 650.359375 603.800781 637.4375 590.878906 L 506.988281 460.480469 C 533.230469 424.785156 548.742188 380.707031 548.742188 333.035156 C 548.742188 214.089844 452.175781 117.523438 333.234375 117.523438 C 214.289062 117.523438 117.722656 214.089844 117.722656 333.035156 C 117.722656 451.980469 214.289062 548.542969 333.234375 548.542969 C 380.632812 548.542969 424.476562 533.210938 460.074219 507.238281 Z M 333.234375 183.761719 C 415.617188 183.761719 482.507812 250.648438 482.507812 333.035156 C 482.507812 415.417969 415.617188 482.308594 333.234375 482.308594 C 250.847656 482.308594 183.960938 415.417969 183.960938 333.035156 C 183.960938 250.648438 250.847656 183.761719 333.234375 183.761719 Z M 333.234375 183.761719 " fill-opacity="1" fill-rule="evenodd"/></g></svg>